# xmcd
#
# Track frame offsets: 
#        183
#        46308
#        70983
#        75933
#        103683
#        128433
#        159933
#        194508
#        228783
#        271008
#        285408
#
# Disc length: 4105 seconds
#
# Revision: 6
# Processed by: cddbd v1.5.2PL0 Copyright (c) Steve Scherf et al.
# Submitted via: ExactAudioCopy v1.0b3
#
DISCID=8010070b
DTITLE=Beethoven, Ludwig van - Sonaten für Klavier und Violine Nr. 5 -
DTITLE=7 (Haskil, Grumiaux)
DYEAR=1957
DGENRE=Violinsonate
TTITLE0=Sonate für Klavier und Violine Nr. 5 F-dur op. 24 'Frühling' -
TTITLE0=I. Allegro 
TTITLE1=Sonate für Klavier und Violine Nr. 5 F-dur op. 24 'Frühling' -
TTITLE1=II. Adagio molto espressivo
TTITLE2=Sonate für Klavier und Violine Nr. 5 F-dur op. 24 'Frühling' -
TTITLE2=III. Scherzo. Allegro molto 
TTITLE3=Sonate für Klavier und Violine Nr. 5 F-dur op. 24 'Frühling' -
TTITLE3=IV. Rondo. Allegro ma non troppo 
TTITLE4=Sonate für Klavier und Violine Nr. 6 A-dur op. 30 Nr. 1 - I. A
TTITLE4=llegro
TTITLE5=Sonate für Klavier und Violine Nr. 6 A-dur op. 30 Nr. 1 - II. 
TTITLE5=Adagio
TTITLE6=Sonate für Klavier und Violine Nr. 6 A-dur op. 30 Nr. 1 - III.
TTITLE6=Allegretto con variazioni
TTITLE7=Sonate für Klavier und Violine Nr. 7 c-moll op. 30 Nr. 2 - I. 
TTITLE7=Allegro con brio
TTITLE8=Sonate für Klavier und Violine Nr. 7 c-moll op. 30 Nr. 2 - II.
TTITLE8=Adagio cantabile
TTITLE9=Sonate für Klavier und Violine Nr. 7 c-moll op. 30 Nr. 2 - III
TTITLE9=Scherzo. Allegro
TTITLE10=Sonate für Klavier und Violine Nr. 7 c-moll op. 30 Nr. 2 - IV
TTITLE10=Finale. Allegro
EXTD=a-440 rip CD 2  Philips 422 140 2 PLC3 \nMono,Out of Print
EXTT0=
EXTT1=
EXTT2=
EXTT3=
EXTT4=
EXTT5=
EXTT6=
EXTT7=
EXTT8=
EXTT9=
EXTT10=
PLAYORDER=
